<?xml version="1.0" encoding="UTF-8"?><svg xmlns="http://www.w3.org/2000/svg" xmlns:xlink="http://www.w3.org/1999/xlink" data-name="Layer 1" height="162.0" preserveAspectRatio="xMidYMid meet" version="1.0" viewBox="39.7 169.0 420.7 162.0" width="420.7" zoomAndPan="magnify"><g id="change1_1"><path d="M415.34,331H400.23a2,2,0,0,1,0-4h15.11a2,2,0,0,1,0,4Zm-30,0H370.37a2,2,0,0,1,0-4H385.3a2,2,0,0,1,0,4Zm-29.86,0H340.51a2,2,0,0,1,0-4h14.93a2,2,0,1,1,0,4Zm-29.86,0H310.65a2,2,0,0,1,0-4h14.93a2,2,0,0,1,0,4Zm-29.86,0H280.79a2,2,0,1,1,0-4h14.93a2,2,0,0,1,0,4Zm-29.86,0H250.93a2,2,0,0,1,0-4h14.93a2,2,0,0,1,0,4ZM236,331H221.07a2,2,0,1,1,0-4H236a2,2,0,0,1,0,4Zm-29.86,0H191.21a2,2,0,0,1,0-4h14.93a2,2,0,0,1,0,4Zm-29.86,0H161.35a2,2,0,0,1,0-4h14.93a2,2,0,0,1,0,4Zm-29.86,0H131.49a2,2,0,0,1,0-4h14.93a2,2,0,0,1,0,4Zm-29.86,0H101.62a2,2,0,0,1,0-4h14.94a2,2,0,0,1,0,4Zm-29.87,0H84.84a45,45,0,0,1-13.47-2.05,2,2,0,1,1,1.19-3.81A41.35,41.35,0,0,0,84.84,327h1.85a2,2,0,0,1,0,4ZM430,328.36a2,2,0,0,1-.68-3.88,40.87,40.87,0,0,0,12.26-7.08,2,2,0,1,1,2.57,3.07,45,45,0,0,1-13.46,7.77A2.09,2.09,0,0,1,430,328.36ZM58.77,322.2a2,2,0,0,1-1.21-.4A45.5,45.5,0,0,1,47,310.42a2,2,0,0,1,3.36-2.18A41.21,41.21,0,0,0,60,318.61a2,2,0,0,1-1.21,3.59Zm393.65-12.6a2,2,0,0,1-1-.27,2,2,0,0,1-.72-2.74,40.64,40.64,0,0,0,4.94-13.27,2,2,0,1,1,3.94.72,44.77,44.77,0,0,1-5.42,14.57A2,2,0,0,1,452.42,309.6ZM42.81,297.67a2,2,0,0,1-1.94-1.54,45.26,45.26,0,0,1-1.19-10.32v-5a2,2,0,0,1,4,0v5a41.79,41.79,0,0,0,1.08,9.41,2,2,0,0,1-1.49,2.4A1.8,1.8,0,0,1,42.81,297.67ZM458.32,280.8a2,2,0,0,1-2-2V263.87a2,2,0,0,1,4,0V278.8A2,2,0,0,1,458.32,280.8ZM41.68,267.9a2,2,0,0,1-2-2V251a2,2,0,1,1,4,0V265.9A2,2,0,0,1,41.68,267.9Zm416.64-17a2,2,0,0,1-2-2V234a2,2,0,1,1,4,0v14.93A2,2,0,0,1,458.32,250.94ZM41.68,238a2,2,0,0,1-2-2V221.11a2,2,0,0,1,4,0V236A2,2,0,0,1,41.68,238Zm416.64-17a2,2,0,0,1-2-2v-4.89a41.31,41.31,0,0,0-1.1-9.49,2,2,0,1,1,3.89-.92,45.37,45.37,0,0,1,1.21,10.41v4.89A2,2,0,0,1,458.32,221.08ZM42.42,208.23a2.31,2.31,0,0,1-.37,0,2,2,0,0,1-1.6-2.34,44.72,44.72,0,0,1,5.45-14.55,2,2,0,0,1,3.45,2,40.93,40.93,0,0,0-5,13.26A2,2,0,0,1,42.42,208.23ZM451.3,192.59a2,2,0,0,1-1.67-.9A41.26,41.26,0,0,0,440,181.34a2,2,0,1,1,2.42-3.19A45.08,45.08,0,0,1,453,189.5a2,2,0,0,1-.58,2.77A2,2,0,0,1,451.3,192.59ZM57.25,183A2,2,0,0,1,56,179.47a44.83,44.83,0,0,1,13.47-7.74,2,2,0,0,1,1.37,3.76,40.76,40.76,0,0,0-12.28,7A2,2,0,0,1,57.25,183ZM428,175a2.08,2.08,0,0,1-.6-.09A41.07,41.07,0,0,0,415.16,173h-2a2,2,0,0,1,0-4h2a45.11,45.11,0,0,1,13.38,2A2,2,0,0,1,428,175ZM398.28,173H383.35a2,2,0,0,1,0-4h14.93a2,2,0,0,1,0,4Zm-29.86,0H353.49a2,2,0,0,1,0-4h14.93a2,2,0,0,1,0,4Zm-29.86,0H323.63a2,2,0,0,1,0-4h14.93a2,2,0,0,1,0,4Zm-29.86,0H293.77a2,2,0,0,1,0-4H308.7a2,2,0,0,1,0,4Zm-29.86,0H263.91a2,2,0,0,1,0-4h14.93a2,2,0,0,1,0,4ZM249,173H234.05a2,2,0,0,1,0-4H249a2,2,0,0,1,0,4Zm-29.86,0H204.19a2,2,0,0,1,0-4h14.93a2,2,0,0,1,0,4Zm-29.86,0H174.33a2,2,0,0,1,0-4h14.93a2,2,0,0,1,0,4Zm-29.86,0H144.47a2,2,0,0,1,0-4H159.4a2,2,0,0,1,0,4Zm-29.86,0H114.61a2,2,0,1,1,0-4h14.93a2,2,0,0,1,0,4Zm-29.86,0H84.84a2,2,0,0,1-2-2,2,2,0,0,1,2-2H99.68a2,2,0,1,1,0,4Z" fill="#fff"/></g></svg>