<?xml version="1.0" encoding="UTF-8"?><svg xmlns="http://www.w3.org/2000/svg" xmlns:xlink="http://www.w3.org/1999/xlink" height="1469.5" preserveAspectRatio="xMidYMid meet" version="1.0" viewBox="5.8 7.8 1492.2 1469.5" width="1492.2" zoomAndPan="magnify"><g><g id="change1_1"><path d="M217.187,345.196h0c21.446,60.427,64.651,110.262,96.303,166.025,52.832,93.077,72.77,204.401,55.527,310.029-12.519,76.684-43.731,149.377-56.065,226.09-12.334,76.714-1.593,164.115,55.867,216.417,69.3,63.08,178.444,51.975,266.236,19.2,87.792-32.776,171.565-83.661,265.113-89.189,64.099-3.788,127.17,14.239,190.449,25.14,63.279,10.901,131.897,13.878,188.109-17.159,85.975-47.47,114.781-158.089,113.025-256.283s-25.221-197.066-7.801-293.718c12.573-69.757,45.717-133.786,71.025-199.996,25.308-66.209,42.974-139.472,23.258-207.556-27.458-94.818-123.024-157.109-220.139-174.797-97.116-17.688-196.74,.772-293.806,18.73-97.066,17.957-197.043,35.44-293.796,15.864-72.055-14.579-146.737-49.704-210.3-65.83C340.641,7.83,135.712,102.985,217.187,345.196Z" fill="#fffcbb"/></g><g id="change2_5"><path d="M211.402,346.791c13.213,37.23,34.519,70.675,56.231,103.416,22.272,33.584,44.383,67.065,60.848,103.983,33.366,74.812,46.511,158.557,38.13,240.005-8.939,86.868-46.36,167.41-59.736,253.393-10.385,66.754-4.858,142.732,37.5,198.208,43.212,56.595,114.547,74.28,182.802,68.425,35.58-3.052,70.616-11.467,104.18-23.538,38.61-13.886,75.766-31.503,113.49-47.556,38.004-16.173,76.965-31.019,117.689-38.67,43.39-8.152,87.083-5.348,130.38,1.958,80.776,13.63,164.442,39.857,246.256,17.622,33.768-9.178,64.456-27.315,88.273-53,21.954-23.675,37.696-52.379,48.651-82.612,25.358-69.981,23.669-144.25,17.193-217.295-4.02-45.341-9.342-90.663-9.716-136.233-.366-44.554,5.203-88.095,18.325-130.722,25.372-82.417,70.663-158.075,85.738-243.719,7.127-40.49,7.512-82.691-4.937-122.22-10.055-31.928-28.029-60.852-50.982-85.107-47.444-50.136-114.081-80.479-181.666-91.153-89.883-14.196-180.754,.777-269.279,17.031-89.12,16.364-179.853,34.525-270.861,24.984-84.702-8.88-160.94-48.258-242.314-70.096-40.089-10.759-82.452-8.857-122.065,3.212-42.078,12.821-81.227,37.186-108.791,71.767-32.321,40.549-46.119,91.619-43.957,143.055,1.359,32.345,8.392,64.225,18.619,94.864,2.433,7.289,14.026,4.164,11.571-3.19-18.552-55.58-26.655-116.893-6.881-173.314,14.765-42.129,44.965-77.017,83.132-99.771,35.171-20.969,76.432-32.266,117.401-31.802,23.038,.261,44.594,5.437,66.553,12.172,38.921,11.938,76.814,26.962,115.487,39.65,40.573,13.311,81.762,23.42,124.446,26.645,43.915,3.318,88.061,.489,131.677-5.058,88.699-11.281,175.699-34.031,264.919-41.488,78.232-6.539,158.795-.662,229.492,36.053,59.563,30.933,110.096,82.237,125.848,149.021,19.693,83.494-14.13,167.958-45.864,243.819-16.187,38.695-32.723,77.451-43.651,118.037-11.275,41.875-14.855,84.975-13.781,128.234,2.06,82.943,19.746,165.764,12.26,248.849-5.662,62.835-25.298,129.441-71.59,174.606-56.411,55.038-138.333,56.957-211.744,45.272-42.828-6.817-84.962-17.473-127.971-23.236-41.613-5.576-82.975-5.249-124.081,3.781-78.931,17.339-149.129,59.203-224.908,85.614-63.574,22.158-137.97,34.113-202.433,8.706-31.339-12.351-58.056-34.531-75.864-63.118-17.923-28.771-26.954-62.38-29.886-95.948-7.015-80.317,21.141-156.803,42.223-232.966,11.037-39.874,19.785-80.279,22.385-121.658,2.499-39.77-.124-79.824-7.414-118.991-7.224-38.814-19.268-76.655-35.684-112.557-16.492-36.07-38.415-68.842-60.25-101.812-20.685-31.235-41.223-63.237-53.823-98.74-2.565-7.227-14.164-4.114-11.571,3.19Z" fill="#595959"/></g></g><g><g><g id="change3_1"><circle cx="352.937" cy="1190.052" fill="#fff" r="58.664"/></g><g id="change2_2"><path d="M352.964,1256.751c-8.012,0-16.038-1.463-23.75-4.399-16.641-6.337-29.818-18.774-37.104-35.022-15.041-33.54,.009-73.063,33.549-88.105,33.541-15.036,73.064,.01,88.105,33.55,7.286,16.247,7.809,34.36,1.472,51.001-6.337,16.642-18.774,29.818-35.022,37.104-8.718,3.909-17.975,5.872-27.251,5.872Zm-.101-117.361c-6.92,0-13.945,1.424-20.657,4.434-25.49,11.432-36.928,41.469-25.497,66.959,5.537,12.348,15.552,21.801,28.199,26.616,12.647,4.814,26.412,4.418,38.76-1.119h0c12.348-5.537,21.8-15.552,26.616-28.198,4.816-12.647,4.418-26.413-1.119-38.761-8.421-18.778-26.942-29.931-46.302-29.931Z" fill="#595959"/></g></g><g><g id="change4_2"><path d="M100.493,1373.357h116.21c16.326,0,29.581,13.255,29.581,29.581h0c0,16.326-13.255,29.581-29.581,29.581H100.493v-59.162h0Z" fill="#f489a7" transform="rotate(48.954 173.393 1402.924)"/></g><g id="change2_3"><path d="M201.857,1473.168c-10.501,0-20.945-4.362-28.367-12.885h0l-81.565-93.678,56.685-49.356,81.565,93.677c13.607,15.628,11.964,39.413-3.664,53.021-7.105,6.187-15.9,9.222-24.654,9.222Zm-16.3-23.393c7.815,8.975,21.473,9.919,30.447,2.104,8.974-7.814,9.918-21.474,2.104-30.448l-71.058-81.608-32.552,28.343,71.058,81.609Z" fill="#595959"/></g></g><g><g id="change3_2"><path d="M270.239,1074.728s-92.598,120.317-185.774,162.101l27.486,61.292,27.486,61.292c93.176-41.784,244.609-30.903,244.609-30.903l-113.808-253.783Z" fill="#fff"/></g><g id="change2_4"><path d="M135.412,1369.987l-61.52-137.184,7.3-3.273c90.229-40.464,181.794-158.494,182.708-159.682l8.163-10.602,124.759,278.2-13.347-.956c-1.495-.106-150.534-10.242-240.763,30.223l-7.3,3.273Zm-40.429-129.255l48.537,108.232c38.778-15.857,90.113-25.494,152.76-28.661,32.511-1.643,59.799-1.073,75.113-.461l-103.098-229.898c-9.727,11.843-27.453,32.598-50.304,55.781-44.034,44.674-85.373,76.598-123.008,95.007Z" fill="#595959"/></g></g><g><g id="change4_1"><path d="M84.465,1236.829l-40.792,18.293c-24.096,10.806-34.87,39.099-24.064,63.195l15.842,35.326c10.806,24.096,39.099,34.87,63.195,24.064l40.792-18.293-54.973-122.585Z" fill="#f489a7"/></g><g id="change2_1"><path d="M79.162,1389.892c-21.331,0-41.733-12.285-51.011-32.976l-15.842-35.326c-6.101-13.604-6.538-28.769-1.233-42.701s15.719-24.966,29.323-31.066l48.092-21.566,61.52,137.184-48.092,21.567c-7.393,3.314-15.136,4.885-22.757,4.885Zm1.277-142.489l-33.493,15.02c-9.704,4.352-17.133,12.222-20.917,22.16-3.785,9.939-3.472,20.757,.879,30.461l15.842,35.326c8.984,20.033,32.59,29.021,52.622,20.038l33.493-15.021-48.426-107.984Z" fill="#595959"/></g></g><g><g id="change4_3"><rect fill="#f489a7" height="317.417" rx="22.857" ry="22.857" transform="rotate(-24.154 347.992 1192.254)" width="45.713" x="325.142" y="1033.558"/></g><g id="change2_9"><path d="M403.632,1347.081c-11.792,0-23.071-6.792-28.2-18.229l-111.178-247.916c-6.962-15.524,.004-33.819,15.529-40.782h0c15.525-6.96,33.819,.006,40.781,15.529l111.178,247.917c3.373,7.521,3.615,15.904,.682,23.607-2.933,7.702-8.69,13.802-16.211,17.174-4.087,1.832-8.367,2.7-12.581,2.7Zm-117.301-292.328h0c-7.475,3.353-10.829,12.161-7.477,19.636l111.178,247.916c3.352,7.474,12.16,10.827,19.635,7.477,3.621-1.624,6.393-4.561,7.805-8.269,1.412-3.709,1.296-7.745-.328-11.366l-111.178-247.917c-3.352-7.476-12.16-10.832-19.635-7.477Z" fill="#595959"/></g></g></g><g id="change2_6"><path d="M470.466,1141.798c19.993-11.898,39.019-25.395,56.92-40.255,4.935-4.096,9.776-8.304,14.527-12.611,2.332-2.114,2.308-6.366,0-8.485-2.492-2.287-5.998-2.255-8.485,0-8.353,7.574-16.95,14.995-25.961,21.783,1.243-.936-.55,.422-.782,.599-.546,.418-1.092,.834-1.64,1.249-1.217,.923-2.438,1.839-3.665,2.748-2.207,1.637-4.43,3.254-6.668,4.85-4.6,3.279-9.264,6.47-13.988,9.568-5.363,3.517-10.804,6.913-16.315,10.193-2.697,1.605-3.918,5.471-2.153,8.209,1.75,2.714,5.323,3.87,8.209,2.153h0Z" fill="#595959"/></g><g id="change2_7"><path d="M419.878,1075.602l23.303-52.444,6.687-15.049c.677-1.523,1.066-2.95,.605-4.623-.383-1.392-1.459-2.9-2.757-3.586-2.611-1.379-6.848-.91-8.209,2.153l-23.303,52.444-6.687,15.049c-.677,1.523-1.066,2.95-.605,4.623,.383,1.392,1.459,2.9,2.757,3.586,2.611,1.379,6.848,.91,8.209-2.153h0Z" fill="#595959"/></g><g id="change2_8"><path d="M500.193,1218.895c18.146-2.283,36.482-2.969,54.746-2.012,5.159,.27,10.31,.675,15.449,1.201,3.132,.321,6.135-2.989,6-6-.158-3.525-2.644-5.656-6-6-18.193-1.863-36.541-2.126-54.778-.747-5.151,.39-10.292,.913-15.417,1.558-1.651,.208-3.017,.532-4.243,1.757-1.041,1.041-1.824,2.748-1.757,4.243,.131,2.915,2.665,6.42,6,6h0Z" fill="#595959"/></g></svg>